<svg width="86" height="192" viewBox="0 0 86 192" fill="none" xmlns="http://www.w3.org/2000/svg">
<path d="M1.95068 1.15601L1.95068 12.9239L1.95068 24.7148L1.95068 36.4827L1.95068 48.2505L1.95068 60.0184L1.95068 71.8093L1.95068 83.5772L1.95068 95.345L1.95068 107.136L1.95068 118.904L1.95068 130.672L1.95068 142.44L1.95068 154.23L1.95068 165.998L1.95068 177.766H13.6812L25.4117 189.534L25.4117 177.766L25.4117 165.998V154.23L25.4117 142.44V130.672L25.4117 118.904V107.136L25.4117 95.345V83.5772L25.4117 71.8093V60.0184L25.4117 48.2505V36.4827L25.4117 24.7148V12.9239L13.6812 1.15601L1.95068 1.15601Z" stroke="#9F9F9F" stroke-width="2" stroke-miterlimit="10"/>
<path d="M37.165 118.904L48.8955 107.136V95.345L37.165 107.136L37.165 118.904Z" stroke="#9F9F9F" stroke-width="2" stroke-miterlimit="10"/>
<path d="M72.3795 83.5772L60.626 71.8093H48.8955V83.5772L48.8955 95.345H60.626L72.3795 107.136V95.345V83.5772Z" stroke="#9F9F9F" stroke-width="2" stroke-miterlimit="10"/>
<path d="M84.1104 107.136H72.3799V118.904H84.1104V107.136Z" stroke="#9F9F9F" stroke-width="2" stroke-miterlimit="10"/>
<path d="M72.3799 142.439V154.23V165.998L72.3799 177.766V189.534H84.1104L84.1104 177.766V165.998V154.23V142.439V130.672H72.3799V142.439Z" stroke="#9F9F9F" stroke-width="2" stroke-miterlimit="10"/>
</svg>
