<svg width="62" height="111" viewBox="0 0 62 111" fill="none" xmlns="http://www.w3.org/2000/svg">
<path d="M13.4868 3.27734L1.75635 3.27734L1.75635 15.0452L13.4868 15.0452L13.4868 3.27734Z" stroke="#9F9F9F" stroke-width="2" stroke-miterlimit="10"/>
<path d="M1.75635 26.813L1.75635 38.5809L1.75635 50.3718L1.75635 62.1397L1.75635 73.9075L1.75635 85.6985L1.75635 97.4663L1.75635 109.234H13.4868L25.2404 97.4663L25.2404 85.6985V73.9075L25.2404 62.1397V50.3718L25.2404 38.5809V26.813L25.2404 15.0452L13.4868 26.813H1.75635Z" stroke="#9F9F9F" stroke-width="2" stroke-miterlimit="10"/>
<path d="M36.9707 3.27734V15.0452L48.7012 26.813V15.0452L36.9707 3.27734Z" stroke="#9F9F9F" stroke-width="2" stroke-miterlimit="10"/>
<path d="M60.4317 26.813L48.7012 26.813V38.5808H60.4317V26.813Z" stroke="#9F9F9F" stroke-width="2" stroke-miterlimit="10"/>
</svg>
