<svg width="60" height="107" viewBox="0 0 60 107" fill="none" xmlns="http://www.w3.org/2000/svg">
<path d="M12.4009 0.525024L0.67041 0.525024L0.67041 12.2929L12.4009 12.2929L12.4009 0.525024Z" fill="#F8EFF3"/>
<path d="M0.67041 24.0607L0.67041 35.8285L0.67041 47.6195L0.67041 59.3873L0.67041 71.1552L0.67041 82.9461L0.67041 94.714L0.67041 106.482H12.4009L24.1544 94.714L24.1544 82.9461V71.1552L24.1544 59.3873V47.6195L24.1544 35.8285V24.0607L24.1544 12.2928L12.4009 24.0607H0.67041Z" fill="#F8EFF3"/>
<path d="M35.8848 0.525024V12.2929L47.6153 24.0607V12.2929L35.8848 0.525024Z" fill="#F8EFF3"/>
<path d="M59.3457 24.0607L47.6152 24.0607V35.8285H59.3457V24.0607Z" fill="#F8EFF3"/>
</svg>
