<svg width="84" height="189" viewBox="0 0 84 189" fill="none" xmlns="http://www.w3.org/2000/svg">
<path d="M0.864746 0.403809L0.864746 12.1717L0.864746 23.9626L0.864746 35.7305L0.864746 47.4983L0.864746 59.2662L0.864746 71.0571L0.864746 82.825L0.864746 94.5928L0.864746 106.384L0.864746 118.152L0.864746 129.919L0.864746 141.687L0.864746 153.478L0.864746 165.246L0.864746 177.014H12.5952L24.3257 188.782L24.3257 177.014L24.3257 165.246V153.478L24.3257 141.687V129.919L24.3257 118.152V106.384L24.3257 94.5928V82.825L24.3257 71.0571V59.2662L24.3257 47.4983V35.7305L24.3257 23.9626V12.1717L12.5952 0.403809L0.864746 0.403809Z" fill="#F8EFF3"/>
<path d="M36.0791 118.152L47.8096 106.384V94.5928L36.0791 106.384L36.0791 118.152Z" fill="#F8EFF3"/>
<path d="M71.2936 82.825L59.5401 71.0571H47.8096V82.825L47.8096 94.5928H59.5401L71.2936 106.384V94.5928V82.825Z" fill="#F8EFF3"/>
<path d="M83.0244 106.384H71.2939V118.152H83.0244V106.384Z" fill="#F8EFF3"/>
<path d="M71.2939 141.687V153.478V165.246L71.2939 177.014V188.782H83.0244L83.0244 177.014V165.246V153.478V141.687V129.919H71.2939V141.687Z" fill="#F8EFF3"/>
</svg>
