<svg width="763" height="242" viewBox="0 0 763 242" fill="none" xmlns="http://www.w3.org/2000/svg">
<g clip-path="url(#clip0_37_11)">
<path d="M163.799 86.9269L175.508 98.5818V86.9269V75.2719L163.799 63.5941L152.089 63.5941L140.357 75.2719V86.9269V98.5818L152.089 86.9269H163.799Z" fill="#F8EFF3"/>
<path d="M140.357 98.5818H128.647V110.237H140.357V98.5818Z" fill="#F8EFF3"/>
<path d="M128.647 121.915V110.237H116.938L105.206 98.5818V110.237V121.915V133.569L116.938 145.224H128.647V133.569V121.915Z" fill="#F8EFF3"/>
<path d="M152.089 98.5818L140.357 110.237V121.915V133.569V145.224L152.089 133.569H163.799L175.508 145.224V133.569V121.915V110.237L163.799 98.5818H152.089Z" fill="#F8EFF3"/>
<path d="M187.218 145.224H175.508V156.879H187.218V145.224Z" fill="#F8EFF3"/>
<path d="M187.218 98.5818H175.508V110.237H187.218V98.5818Z" fill="#F8EFF3"/>
<path d="M210.66 133.569V121.915V110.237V98.5818L198.95 110.237H187.218V121.915V133.569V145.224H198.95L210.66 133.569Z" fill="#F8EFF3"/>
<path d="M198.95 156.902V168.557V180.212L210.66 168.557H222.369V156.902V145.224H210.66L198.95 156.902Z" fill="#F8EFF3"/>
<path d="M152.089 145.224L140.357 156.902V168.557V180.212L152.089 168.557H163.799L175.508 180.212V168.557V156.902L163.799 145.224H152.089Z" fill="#F8EFF3"/>
<path d="M140.357 145.224H128.647V156.879H140.357V145.224Z" fill="#F8EFF3"/>
<path d="M689.618 214.558H677.886L666.176 226.236V237.891L677.886 226.236V237.891H689.618H701.328V226.236L713.037 237.891V226.236L701.328 214.558H689.618Z" fill="#F8EFF3"/>
<path d="M677.886 109.618L666.176 121.273V132.928L677.886 121.273V109.618Z" fill="#F8EFF3"/>
<path d="M701.328 109.618V97.9632V86.2854H689.618H677.886V97.9632V109.618H689.618H701.328Z" fill="#F8EFF3"/>
<path d="M701.328 121.273H689.618H677.886V132.928V144.606H689.618H701.328V132.928V121.273Z" fill="#F8EFF3"/>
<path d="M713.037 132.928V121.273L701.328 109.618V121.273L713.037 132.928Z" fill="#F8EFF3"/>
<path d="M736.456 86.2854H724.747V97.9403H736.456V86.2854Z" fill="#F8EFF3"/>
<path d="M713.037 132.928V144.606V156.261L701.328 144.606V156.261L713.037 167.916V179.593V191.248V202.903V214.558V226.236L724.747 214.558V202.903H736.479V191.248V179.593V167.916V156.261V144.606V132.928V121.273H724.747L713.037 132.928Z" fill="#F8EFF3"/>
<path d="M677.886 156.261V167.916V179.593H689.618H701.328V167.916V156.261H689.618H677.886Z" fill="#F8EFF3"/>
<path d="M666.176 156.261V144.606V132.928L654.467 121.273H642.734V132.928V144.606H654.467V156.261L666.176 167.916L677.886 156.261V144.606L666.176 156.261Z" fill="#F8EFF3"/>
<path d="M654.467 202.903V214.558L666.176 226.236V214.558L654.467 202.903Z" fill="#F8EFF3"/>
<path d="M26.2564 95.0096V83.3546L26.2564 71.6997V60.0219L26.2564 48.367V36.712L26.2564 25.0571V13.3793L14.5239 1.72437L2.81445 1.72437L2.81445 13.3793L2.81445 25.0571L2.81445 36.712L2.81445 48.367L2.81445 60.0219L2.81445 71.6997L2.81445 83.3546L2.81445 95.0096L2.81445 106.687H14.5239L26.2564 118.342V106.687L26.2564 95.0096Z" fill="#F8EFF3"/>
<path d="M84.8266 141.652H73.1172V129.997H61.3847V118.342L49.6753 129.997V118.342H37.9658H26.2563L26.2563 129.997H37.9658V141.652H49.6753L49.6753 153.33L61.3847 141.652V153.33H73.1172V164.985H84.8266L96.5361 176.64V164.985L84.8266 153.33V141.652Z" fill="#F8EFF3"/>
<path d="M2.81445 118.342L2.81445 129.997L2.81445 141.652L2.81445 153.33L2.81445 164.985H14.5239L26.2564 176.64L26.2564 164.985V153.33L26.2564 141.652V129.997L14.5239 118.342H2.81445Z" fill="#F8EFF3"/>
<path d="M73.0942 83.3546H61.3848V95.0095H73.0942V83.3546Z" fill="#F8EFF3"/>
<path d="M61.3847 95.0095L49.6753 106.687L49.6753 118.342L61.3847 106.687V95.0095Z" fill="#F8EFF3"/>
<path d="M569.671 76.7833H557.962V88.4382H569.671V76.7833Z" fill="#F8EFF3"/>
<path d="M616.532 100.093H604.823V111.748H616.532V100.093Z" fill="#F8EFF3"/>
<path d="M604.823 76.7833L593.113 88.4382V100.093H581.404V111.771H593.113L604.823 100.093V88.4382V76.7833Z" fill="#F8EFF3"/>
<path d="M557.962 100.093V111.771V123.426V135.081V146.736V158.414V170.068H569.694L581.404 181.723V170.068V158.414V146.736V135.081V123.426V111.771L569.694 100.093H557.962Z" fill="#F8EFF3"/>
<path d="M616.555 123.426V135.081V146.736V158.414V170.068V181.723L628.265 170.068V158.414V146.736V135.081V123.426V111.771V100.093L616.555 111.771V123.426Z" fill="#F8EFF3"/>
<path d="M396.102 104.398V92.7201V81.0652L384.392 90.728L372.683 81.0652V92.7201V104.398L384.392 114.061L396.102 104.398Z" fill="#F8EFF3"/>
<path d="M360.95 92.7201H349.241V104.375H360.95V92.7201Z" fill="#F8EFF3"/>
<path d="M372.683 104.398H360.973V116.053H372.683V104.398Z" fill="#F8EFF3"/>
<path d="M360.973 116.053H349.241L337.531 125.716V137.371V149.026L349.241 139.386H360.973V127.708V116.053Z" fill="#F8EFF3"/>
<path d="M372.683 116.053V127.708V139.386L384.392 149.026L396.102 139.386V127.708V116.053L384.392 125.716L372.683 116.053Z" fill="#F8EFF3"/>
<path d="M407.811 104.398H396.102V116.053H407.811V104.398Z" fill="#F8EFF3"/>
<path d="M419.543 92.7201H407.834V104.375H419.543V92.7201Z" fill="#F8EFF3"/>
<path d="M407.834 116.053V127.708V139.386H419.543L431.253 149.026V137.371V125.716L419.543 116.053H407.834Z" fill="#F8EFF3"/>
<path d="M419.543 151.041H407.834V162.695H419.543V151.041Z" fill="#F8EFF3"/>
<path d="M407.811 139.386H396.102V151.041H407.811V139.386Z" fill="#F8EFF3"/>
<path d="M372.683 151.041V162.695V174.35L384.392 184.013L396.102 174.35V162.695V151.041L384.392 160.703L372.683 151.041Z" fill="#F8EFF3"/>
<path d="M372.683 139.386H360.973V151.041H372.683V139.386Z" fill="#F8EFF3"/>
<path d="M360.95 151.041H349.241V162.695H360.95V151.041Z" fill="#F8EFF3"/>
<path d="M465.598 72.7985H453.888V84.4534H465.598V72.7985Z" fill="#F8EFF3"/>
<path d="M477.33 154.429V142.774V131.096V119.441V107.786L465.621 96.1312H453.888V107.786V119.441V131.096V142.774V154.429H465.621V142.774L477.33 154.429Z" fill="#F8EFF3"/>
<path d="M465.621 154.429V166.084L477.33 177.761V166.084L465.621 154.429Z" fill="#F8EFF3"/>
<path d="M489.04 166.084L477.33 177.761V189.416L489.04 177.761H500.749L512.481 189.416V177.761L500.749 166.084H489.04Z" fill="#F8EFF3"/>
<path d="M512.481 177.761L524.191 166.084V154.429L512.481 166.084V177.761Z" fill="#F8EFF3"/>
<path d="M512.481 107.786V119.441V131.096V142.774V154.429L524.191 142.774V154.429H535.9V142.774V131.096V119.441V107.786V96.1312H524.191L512.481 107.786Z" fill="#F8EFF3"/>
<path d="M535.9 72.7985H524.191V84.4534H535.9V72.7985Z" fill="#F8EFF3"/>
<path d="M250.34 94.2997H238.631V105.955H250.34V94.2997Z" fill="#F8EFF3"/>
<path d="M262.05 117.632H250.34H238.631V129.287H250.34V140.942H262.05V129.287V117.632Z" fill="#F8EFF3"/>
<path d="M285.492 164.275H273.782V152.62L262.05 140.942V152.62V164.275L273.782 175.93V187.608H285.492V175.93L297.201 164.275V152.62V140.942L285.492 152.62V164.275Z" fill="#F8EFF3"/>
<path d="M297.201 117.632V129.287V140.942H308.934V129.287H320.643V117.632H308.934H297.201Z" fill="#F8EFF3"/>
<path d="M320.643 94.2997H308.934V105.955H320.643V94.2997Z" fill="#F8EFF3"/>
<path d="M262.05 187.608L273.782 199.263V187.608L262.05 175.93V187.608Z" fill="#F8EFF3"/>
<path d="M262.05 187.608H250.34V199.263H262.05V187.608Z" fill="#F8EFF3"/>
<path d="M250.34 199.263H238.631V210.918H250.34V199.263Z" fill="#F8EFF3"/>
<path d="M226.921 234.25L238.631 222.573V210.918L226.921 222.573V234.25Z" fill="#F8EFF3"/>
<path d="M162.896 86.3473L174.605 98.0022V86.3473V74.6923L162.896 63.0145L151.164 63.0145L139.454 74.6923V86.3473V98.0022L151.164 86.3473H162.896Z" stroke="#9F9F9F" stroke-width="2" stroke-miterlimit="10"/>
<path d="M139.454 98.0022H127.745V109.657H139.454V98.0022Z" stroke="#9F9F9F" stroke-width="2" stroke-miterlimit="10"/>
<path d="M127.745 121.335V109.657H116.035L104.303 98.0022V109.657V121.335V132.99L116.035 144.645H127.745V132.99V121.335Z" stroke="#9F9F9F" stroke-width="2" stroke-miterlimit="10"/>
<path d="M151.164 98.0022L139.454 109.657V121.335V132.99V144.645L151.164 132.99H162.896L174.605 144.645V132.99V121.335V109.657L162.896 98.0022H151.164Z" stroke="#9F9F9F" stroke-width="2" stroke-miterlimit="10"/>
<path d="M186.315 144.645H174.605V156.3H186.315V144.645Z" stroke="#9F9F9F" stroke-width="2" stroke-miterlimit="10"/>
<path d="M186.315 98.0022H174.605V109.657H186.315V98.0022Z" stroke="#9F9F9F" stroke-width="2" stroke-miterlimit="10"/>
<path d="M209.757 132.99V121.335V109.657V98.0022L198.047 109.657H186.315V121.335V132.99V144.645H198.047L209.757 132.99Z" stroke="#9F9F9F" stroke-width="2" stroke-miterlimit="10"/>
<path d="M198.047 156.323V167.978V179.632L209.757 167.978H221.466V156.323V144.645H209.757L198.047 156.323Z" stroke="#9F9F9F" stroke-width="2" stroke-miterlimit="10"/>
<path d="M151.164 144.645L139.454 156.323V167.978V179.632L151.164 167.978H162.896L174.605 179.632V167.978V156.323L162.896 144.645H151.164Z" stroke="#9F9F9F" stroke-width="2" stroke-miterlimit="10"/>
<path d="M139.454 144.645H127.745V156.3H139.454V144.645Z" stroke="#9F9F9F" stroke-width="2" stroke-miterlimit="10"/>
<path d="M688.715 213.979H676.983L665.273 225.656V237.311L676.983 225.656V237.311H688.715H700.425V225.656L712.134 237.311V225.656L700.425 213.979H688.715Z" stroke="#9F9F9F" stroke-width="2" stroke-miterlimit="10"/>
<path d="M676.983 109.039L665.273 120.693V132.348L676.983 120.693V109.039Z" stroke="#9F9F9F" stroke-width="2" stroke-miterlimit="10"/>
<path d="M700.425 109.039V97.3836V85.7058H688.715H676.983V97.3836V109.039H688.715H700.425Z" stroke="#9F9F9F" stroke-width="2" stroke-miterlimit="10"/>
<path d="M700.425 120.693H688.715H676.983V132.348V144.026H688.715H700.425V132.348V120.693Z" stroke="#9F9F9F" stroke-width="2" stroke-miterlimit="10"/>
<path d="M712.134 132.348V120.693L700.425 109.039V120.693L712.134 132.348Z" stroke="#9F9F9F" stroke-width="2" stroke-miterlimit="10"/>
<path d="M735.553 85.7058H723.844V97.3607H735.553V85.7058Z" stroke="#9F9F9F" stroke-width="2" stroke-miterlimit="10"/>
<path d="M712.134 132.348V144.026V155.681L700.425 144.026V155.681L712.134 167.336V179.014V190.669V202.324V213.979V225.656L723.844 213.979V202.324H735.576V190.669V179.014V167.336V155.681V144.026V132.348V120.693H723.844L712.134 132.348Z" stroke="#9F9F9F" stroke-width="2" stroke-miterlimit="10"/>
<path d="M676.983 155.681V167.336V179.014H688.715H700.425V167.336V155.681H688.715H676.983Z" stroke="#9F9F9F" stroke-width="2" stroke-miterlimit="10"/>
<path d="M665.273 155.681V144.026V132.348L653.564 120.693H641.832V132.348V144.026H653.564V155.681L665.273 167.336L676.983 155.681V144.026L665.273 155.681Z" stroke="#9F9F9F" stroke-width="2" stroke-miterlimit="10"/>
<path d="M653.564 202.324V213.979L665.273 225.656V213.979L653.564 202.324Z" stroke="#9F9F9F" stroke-width="2" stroke-miterlimit="10"/>
<path d="M25.3535 94.43V82.775L25.3535 71.1201V59.4423L25.3535 47.7874V36.1324L25.3535 24.4775V12.7997L13.6211 1.14478L1.91162 1.14478L1.91162 12.7997L1.91162 24.4775L1.91162 36.1324L1.91162 47.7874L1.91162 59.4423L1.91162 71.1201L1.91162 82.775L1.91162 94.43L1.91162 106.108H13.6211L25.3535 117.763V106.108L25.3535 94.43Z" stroke="#9F9F9F" stroke-width="2" stroke-miterlimit="10"/>
<path d="M83.9238 141.073H72.2143V129.418H60.4819V117.763L48.7724 129.418V117.763H37.063H25.3535L25.3535 129.418H37.063V141.073H48.7724L48.7724 152.75L60.4819 141.073V152.75H72.2143V164.405H83.9238L95.6333 176.06V164.405L83.9238 152.75V141.073Z" stroke="#9F9F9F" stroke-width="2" stroke-miterlimit="10"/>
<path d="M1.91162 117.763L1.91162 129.418L1.91162 141.073L1.91162 152.75L1.91162 164.405H13.6211L25.3535 176.06L25.3535 164.405V152.75L25.3535 141.073V129.418L13.6211 117.763H1.91162Z" stroke="#9F9F9F" stroke-width="2" stroke-miterlimit="10"/>
<path d="M72.1914 82.775H60.4819V94.4299H72.1914V82.775Z" stroke="#9F9F9F" stroke-width="2" stroke-miterlimit="10"/>
<path d="M60.4819 94.4299L48.7725 106.108L48.7725 117.763L60.4819 106.108V94.4299Z" stroke="#9F9F9F" stroke-width="2" stroke-miterlimit="10"/>
<path d="M568.769 76.2037H557.06V87.8587H568.769V76.2037Z" stroke="#9F9F9F" stroke-width="2" stroke-miterlimit="10"/>
<path d="M615.63 99.5135H603.92V111.168H615.63V99.5135Z" stroke="#9F9F9F" stroke-width="2" stroke-miterlimit="10"/>
<path d="M603.92 76.2037L592.211 87.8587V99.5136H580.501V111.191H592.211L603.92 99.5136V87.8587V76.2037Z" stroke="#9F9F9F" stroke-width="2" stroke-miterlimit="10"/>
<path d="M557.06 99.5135V111.191V122.846V134.501V146.156V157.834V169.489H568.792L580.501 181.144V169.489V157.834V146.156V134.501V122.846V111.191L568.792 99.5135H557.06Z" stroke="#9F9F9F" stroke-width="2" stroke-miterlimit="10"/>
<path d="M615.653 122.846V134.501V146.156V157.834V169.489V181.144L627.362 169.489V157.834V146.156V134.501V122.846V111.191V99.5135L615.653 111.191V122.846Z" stroke="#9F9F9F" stroke-width="2" stroke-miterlimit="10"/>
<path d="M395.199 103.818V92.1405V80.4856L383.489 90.1484L371.78 80.4856V92.1405V103.818L383.489 113.481L395.199 103.818Z" stroke="#9F9F9F" stroke-width="2" stroke-miterlimit="10"/>
<path d="M360.047 92.1405H348.338V103.795H360.047V92.1405Z" stroke="#9F9F9F" stroke-width="2" stroke-miterlimit="10"/>
<path d="M371.78 103.818H360.07V115.473H371.78V103.818Z" stroke="#9F9F9F" stroke-width="2" stroke-miterlimit="10"/>
<path d="M360.07 115.473H348.338L336.628 125.136V136.791V148.446L348.338 138.806H360.07V127.128V115.473Z" stroke="#9F9F9F" stroke-width="2" stroke-miterlimit="10"/>
<path d="M371.78 115.473V127.128V138.806L383.489 148.446L395.199 138.806V127.128V115.473L383.489 125.136L371.78 115.473Z" stroke="#9F9F9F" stroke-width="2" stroke-miterlimit="10"/>
<path d="M406.908 103.818H395.199V115.473H406.908V103.818Z" stroke="#9F9F9F" stroke-width="2" stroke-miterlimit="10"/>
<path d="M418.641 92.1405H406.931V103.795H418.641V92.1405Z" stroke="#9F9F9F" stroke-width="2" stroke-miterlimit="10"/>
<path d="M406.931 115.473V127.128V138.806H418.641L430.35 148.446V136.791V125.136L418.641 115.473H406.931Z" stroke="#9F9F9F" stroke-width="2" stroke-miterlimit="10"/>
<path d="M418.641 150.461H406.931V162.116H418.641V150.461Z" stroke="#9F9F9F" stroke-width="2" stroke-miterlimit="10"/>
<path d="M406.908 138.806H395.199V150.461H406.908V138.806Z" stroke="#9F9F9F" stroke-width="2" stroke-miterlimit="10"/>
<path d="M371.78 150.461V162.116V173.771L383.489 183.434L395.199 173.771V162.116V150.461L383.489 160.124L371.78 150.461Z" stroke="#9F9F9F" stroke-width="2" stroke-miterlimit="10"/>
<path d="M371.78 138.806H360.07V150.461H371.78V138.806Z" stroke="#9F9F9F" stroke-width="2" stroke-miterlimit="10"/>
<path d="M360.047 150.461H348.338V162.116H360.047V150.461Z" stroke="#9F9F9F" stroke-width="2" stroke-miterlimit="10"/>
<path d="M464.695 72.2189H452.985V83.8738H464.695V72.2189Z" stroke="#9F9F9F" stroke-width="2" stroke-miterlimit="10"/>
<path d="M476.427 153.849V142.194V130.516V118.861V107.207L464.718 95.5516H452.985V107.207V118.861V130.516V142.194V153.849H464.718V142.194L476.427 153.849Z" stroke="#9F9F9F" stroke-width="2" stroke-miterlimit="10"/>
<path d="M464.718 153.849V165.504L476.427 177.182V165.504L464.718 153.849Z" stroke="#9F9F9F" stroke-width="2" stroke-miterlimit="10"/>
<path d="M488.137 165.504L476.427 177.182V188.837L488.137 177.182H499.846L511.579 188.837V177.182L499.846 165.504H488.137Z" stroke="#9F9F9F" stroke-width="2" stroke-miterlimit="10"/>
<path d="M511.579 177.182L523.288 165.504V153.849L511.579 165.504V177.182Z" stroke="#9F9F9F" stroke-width="2" stroke-miterlimit="10"/>
<path d="M511.579 107.207V118.861V130.516V142.194V153.849L523.288 142.194V153.849H534.998V142.194V130.516V118.861V107.207V95.5516H523.288L511.579 107.207Z" stroke="#9F9F9F" stroke-width="2" stroke-miterlimit="10"/>
<path d="M534.998 72.2189H523.288V83.8738H534.998V72.2189Z" stroke="#9F9F9F" stroke-width="2" stroke-miterlimit="10"/>
<path d="M249.437 93.7201H237.728V105.375H249.437V93.7201Z" stroke="#9F9F9F" stroke-width="2" stroke-miterlimit="10"/>
<path d="M261.147 117.053H249.437H237.728V128.708H249.437V140.363H261.147V128.708V117.053Z" stroke="#9F9F9F" stroke-width="2" stroke-miterlimit="10"/>
<path d="M284.589 163.695H272.879V152.04L261.147 140.363V152.04V163.695L272.879 175.35V187.005H284.589V175.35L296.298 163.695V152.04V140.363L284.589 152.04V163.695Z" stroke="#9F9F9F" stroke-width="2" stroke-miterlimit="10"/>
<path d="M296.298 117.053V128.708V140.363H308.031V128.708H319.74V117.053H308.031H296.298Z" stroke="#9F9F9F" stroke-width="2" stroke-miterlimit="10"/>
<path d="M319.74 93.7201H308.031V105.375H319.74V93.7201Z" stroke="#9F9F9F" stroke-width="2" stroke-miterlimit="10"/>
<path d="M261.147 187.005L272.879 198.683V187.005L261.147 175.35V187.005Z" stroke="#9F9F9F" stroke-width="2" stroke-miterlimit="10"/>
<path d="M261.147 187.005H249.438V198.66H261.147V187.005Z" stroke="#9F9F9F" stroke-width="2" stroke-miterlimit="10"/>
<path d="M249.437 198.683H237.728V210.338H249.437V198.683Z" stroke="#9F9F9F" stroke-width="2" stroke-miterlimit="10"/>
<path d="M226.019 233.671L237.728 221.993V210.338L226.019 221.993V233.671Z" stroke="#9F9F9F" stroke-width="2" stroke-miterlimit="10"/>
</g>
<defs>
<clipPath id="clip0_37_11">
<rect width="761.598" height="241.891" fill="white" transform="translate(0.762695)"/>
</clipPath>
</defs>
</svg>
